<svg fill="none" width="120" height="36" viewBox="0 0 120 36" xmlns="http://www.w3.org/2000/svg">
  <foreignObject width="100%" height="100%">
    <div xmlns="http://www.w3.org/1999/xhtml">
      <style>
        .badge {
          background: #161b22;
          border: 1px solid #38bdf8;
          border-radius: 8px;
          height: 34px;
          display: flex;
          align-items: center;
          padding: 0 10px;
          gap: 6px;
          font-family: 'Segoe UI', sans-serif;
          font-size: 11px;
          font-weight: 700;
          color: #38bdf8;
          box-shadow: 0 0 10px rgba(56, 189, 248, 0.3);
        }
        .snake {
          width: 18px;
          height: 18px;
          animation: spin-pulse 3s linear infinite;
        }
        @keyframes spin-pulse {
          0% { transform: rotate(0deg) scale(1); }
          50% { transform: rotate(180deg) scale(1.15); }
          100% { transform: rotate(360deg) scale(1); }
        }
      </style>
      <div class="badge">
        <svg class="snake" viewBox="0 0 24 24" fill="none">
          <path d="M12 2C6.48 2 6 3.5 6 6v3h6v1.5H4.5C3 10.5 2 11.8 2 14c0 2.2 1.2 3.5 3 3.5h3v-3c0-2.2 1.8-4 4-4h6c1.5 0 2.5-1 2.5-2.5V6c0-2.5-1.5-4-6.5-4z" fill="#38bdf8"/>
          <path d="M12 22c5.52 0 6-1.5 6-4v-3h-6v-1.5h7.5c1.5 0 2.5-1.3 2.5-3.5 0-2.2-1.2-3.5-3-3.5h-3v3c0 2.2-1.8 4-4 4H6c-1.5 0-2.5 1-2.5 2.5V18c0 2.5 1.5 4 6.5 4z" fill="#facc15"/>
        </svg>
        <span>Python 3</span>
      </div>
    </div>
  </foreignObject>
</svg>
